<?xml version="1.0"?><svg width="537.161" height="358.121" xmlns="http://www.w3.org/2000/svg">
 <title>Cert Good</title>
 <switch>
  <g id="svg_1">
   <g id="Layer_1">
    <g id="svg_2">
     <path id="svg_3" stroke-width="0.036" stroke-miterlimit="10" stroke="#000000" fill-rule="evenodd" d="m44.786999,13.911c-1.115997,-2.592 -2.627998,-4.572001 -4.535999,-5.796c-1.98,-1.26 -4.787998,-2.412 -7.163998,-1.8c-2.412003,0.576 -5.040001,3.492 -7.308002,4.86c-2.483999,1.224 -4.643999,2.087999 -6.875999,2.448c-2.268,0.252 -4.212,-0.108 -6.228,-0.936l-12.636,-12.636c3.492,2.844 6.444,4.68 9.288,5.652c2.736,0.828 4.284,0.684 7.164,0c2.808001,-0.864 6.516001,-3.168 9.576,-4.14c2.880001,-0.972 5.652,-1.62 7.92,-1.368c2.195999,0.252 3.852001,1.116 5.652,2.592c1.764,1.368 3.528,3.204 5.147999,5.652c0,1.8 0,3.636 0,5.472z" clip-rule="evenodd"/>
     <path id="svg_4" stroke-width="0.036" stroke-miterlimit="10" stroke="#000000" fill="none" d="m89.57,0.051c-3.564003,2.844 -6.480003,4.68 -9.288002,5.652c-2.843994,0.828 -4.355995,0.684 -7.164001,0c-2.879997,-0.792 -6.623993,-3.132 -9.575996,-4.104c-2.987999,-0.972 -5.723999,-1.62 -7.919998,-1.404c-2.268002,0.252 -3.960003,1.116 -5.652,2.592c-1.908001,1.368 -3.492001,3.204 -5.184002,5.652"/>
     <path id="svg_5" stroke-width="0.036" stroke-miterlimit="10" stroke="#000000" fill-rule="evenodd" d="m13.898,44.834c-2.592,-1.043999 -4.572,-2.700001 -5.796,-4.571999c-1.26,-1.98 -2.412,-4.788002 -1.8,-7.164001c0.576,-2.411999 3.492,-5.039999 4.86,-7.307999c1.224,-2.412001 2.088,-4.644001 2.448,-6.84c0.252001,-2.232 -0.108,-4.320001 -0.936,-6.264001l-12.635,-12.635c2.844,3.492 4.68,6.444 5.652,9.288c0.828,2.736 0.684,4.284 0,7.164001c-0.864,2.808001 -3.168,6.515999 -4.14,9.576c-0.972,2.879999 -1.62,5.652 -1.368,7.92c0.252,2.195999 1.116,3.852001 2.592,5.652c1.368,1.871998 3.204,3.419998 5.652,5.183998c1.8,-0.000999 3.636,-0.000999 5.471,-0.000999z" clip-rule="evenodd"/>
     <path id="svg_6" stroke-width="0.036" stroke-miterlimit="10" stroke="#000000" fill-rule="evenodd" d="m44.786999,13.911c0.648003,-2.556001 2.124001,-4.536 4.572002,-5.796c2.375999,-1.368 6.515999,-2.772 9.899998,-2.124c3.384003,0.648 6.876003,4.572 10.044003,5.94c2.987999,1.188001 4.463997,2.52 7.919998,1.224c3.384003,-1.439 7.452003,-4.535999 12.348,-9.432l0,-3.672c-3.563995,2.844 -6.479996,4.68 -9.288002,5.652c-2.843994,0.828 -4.355995,0.684 -7.163994,0c-2.880005,-0.864 -6.624001,-3.168 -9.576004,-4.14c-2.987999,-0.972 -5.723999,-1.62 -7.919998,-1.368c-2.268002,0.252 -3.960003,1.116 -5.652,2.592c-1.908001,1.368 -3.492001,3.204 -5.184002,5.652c0,1.8 0,3.636 0,5.472z" clip-rule="evenodd"/>
     <path id="svg_7" stroke-width="0.036" stroke-miterlimit="10" stroke="#000000" fill-rule="evenodd" d="m134.317993,13.911c-0.684006,-2.556001 -2.160004,-4.536 -4.572006,-5.796c-2.447998,-1.368 -6.624001,-2.772 -9.899994,-2.124c-3.492004,0.648 -6.984001,4.572 -10.044006,5.94c-3.095993,1.188001 -4.535995,2.52 -7.919998,1.224c-3.491997,-1.439 -7.416,-4.535999 -12.311996,-9.432l0,-3.672c3.383995,2.844 6.515999,4.68 9.251999,5.652c2.736,0.828 4.283997,0.684 7.164001,0c2.843994,-0.864 6.551994,-3.168 9.612,-4.14c2.807999,-0.972 5.615997,-1.62 7.883995,-1.368c2.232002,0.252 3.744003,1.116 5.652,2.592c1.872009,1.368 3.419998,3.204 5.184006,5.652c0,1.8 0,3.636 0,5.472z" clip-rule="evenodd"/>
     <path id="svg_8" stroke-width="0.036" stroke-miterlimit="10" stroke="#000000" fill-rule="evenodd" d="m223.813995,13.911c-0.68399,-2.556001 -2.159988,-4.536 -4.571991,-5.796c-2.447998,-1.368 -6.624008,-2.772 -9.900009,-2.124c-3.491989,0.648 -6.983994,4.572 -10.043991,5.94c-3.096008,1.188001 -4.536011,2.52 -7.919998,1.224c-3.492004,-1.439 -7.416,-4.535999 -12.312012,-9.432l0,-3.672c3.456009,2.844 6.552002,4.68 9.28801,5.652c2.627991,0.828 4.356003,0.684 7.127991,0c2.736008,-0.864 6.588013,-3.168 9.612,-4.14c2.880005,-0.972 5.652008,-1.62 7.920013,-1.368c2.123993,0.252 3.815994,1.116 5.615997,2.592c1.763992,1.368 3.491989,3.204 5.18399,5.652c0,1.8 0,3.636 0,5.472z" clip-rule="evenodd"/>
     <path id="svg_9" stroke-width="0.036" stroke-miterlimit="10" stroke="#000000" fill-rule="evenodd" d="m134.317993,13.911c0.68399,-2.556001 2.015991,-4.536 4.535995,-5.796c2.376007,-1.368 6.516006,-2.772 9.899994,-2.124c3.384003,0.648 6.876007,4.572 10.044006,5.94c2.988007,1.188001 4.464005,2.52 7.919998,1.224c3.384003,-1.439 7.451996,-4.535999 12.348007,-9.432l0,-3.672c-3.564011,2.844 -6.480011,4.68 -9.28801,5.652c-2.843994,0.828 -4.355988,0.684 -7.164001,0c-2.87999,-0.864 -6.623993,-3.168 -9.575989,-4.14c-2.988007,-0.972 -5.723999,-1.62 -7.919998,-1.368c-2.268005,0.252 -3.960007,1.116 -5.652008,2.592c-1.800003,1.368 -3.563995,3.204 -5.147995,5.652c0,1.8 0,3.636 0,5.472z" clip-rule="evenodd"/>
     <path id="svg_10" stroke-width="0.036" stroke-miterlimit="10" stroke="#000000" fill-rule="evenodd" d="m13.898,44.834c-2.556,0.647999 -4.535999,2.124001 -5.796,4.571999c-1.368,2.412003 -2.772,6.444 -2.124,9.864002c0.648,3.383999 4.572,6.876003 5.94,10.044003c1.188,2.987999 2.52,4.463997 1.224,7.919998c-1.440001,3.383995 -4.536,7.451996 -9.432,12.348l-3.671,0c2.844,-3.564003 4.68,-6.480003 5.652,-9.288002c0.828,-2.844002 0.684,-4.355995 0,-7.164001c-0.864,-2.879997 -3.168,-6.624001 -4.14,-9.575996c-0.972,-2.987999 -1.62,-5.723999 -1.368,-7.920002c0.252,-2.231998 1.116,-3.924 2.592,-5.615997c1.368,-1.800003 3.204,-3.528 5.652,-5.184002c1.8,0 3.636,0 5.471,0z" clip-rule="evenodd"/>
     <path id="svg_11" stroke-width="0.036" stroke-miterlimit="10" stroke="#000000" fill-rule="evenodd" d="m13.898,134.330994c-2.556,-0.684006 -4.535999,-2.160004 -5.796,-4.572006c-1.368,-2.447998 -2.772,-6.624001 -2.124,-9.899994c0.648,-3.492004 4.572,-6.984001 5.94,-10.044006c1.188,-3.096001 2.52,-4.535995 1.224,-7.919998c-1.440001,-3.491997 -4.536,-7.416 -9.432,-12.311996l-3.671,0c2.844,3.491997 4.68,6.444 5.652,9.287994c0.828,2.736 0.684,4.284004 0,7.164001c-0.864,2.807999 -3.168,6.515999 -4.14,9.576004c-0.972,2.879997 -1.62,5.652 -1.368,7.919998c0.252,2.124001 1.116,3.816002 2.592,5.615997c1.368,1.764008 3.204,3.492004 5.652,5.184006c1.8,0 3.636,0 5.471,0z" clip-rule="evenodd"/>
     <path id="svg_12" stroke-width="0.036" stroke-miterlimit="10" stroke="#000000" fill-rule="evenodd" d="m13.898,223.826004c-2.556,-0.720001 -4.535999,-2.087997 -5.796,-4.535004c-1.368,-2.447998 -2.772,-6.623993 -2.124,-9.899994c0.648,-3.492004 4.572,-6.984009 5.94,-10.044006c1.188,-3.095993 2.52,-4.535995 1.224,-7.919998c-1.440001,-3.419998 -4.536,-7.488007 -9.432,-12.348999l-3.671,0c2.844,3.492004 4.68,6.444 5.652,9.287994c0.828,2.736008 0.684,4.283997 0,7.164001c-0.864,2.809006 -3.168,6.517014 -4.14,9.576004c-0.972,2.880005 -1.62,5.652008 -1.368,7.920013c0.252,2.123993 1.116,3.815994 2.592,5.615997c1.368,1.763992 3.204,3.491989 5.652,5.18399c1.8,0 3.636,0 5.471,0z" clip-rule="evenodd"/>
     <path id="svg_13" stroke-width="0.036" stroke-miterlimit="10" stroke="#000000" fill-rule="evenodd" d="m13.898,134.330994c-2.556,0.647995 -4.535999,2.123993 -5.796,4.571991c-1.368,2.376007 -2.772,6.516006 -2.124,9.900009c0.648,3.384003 4.572,6.875992 5.94,10.043991c1.188,2.988007 2.52,4.464005 1.224,7.919998c-1.440001,3.420013 -4.536,7.380005 -9.432,12.312012l-3.671,0c2.844,-3.492004 4.68,-6.587006 5.652,-9.28801c0.828,-2.735992 0.684,-4.463989 0,-7.127991c-0.864,-2.844009 -3.168,-6.695999 -4.14,-9.612c-0.972,-2.988007 -1.62,-5.723999 -1.368,-7.919998c0.252,-2.23201 1.116,-3.924011 2.592,-5.616013c1.368,-1.799988 3.204,-3.528 5.652,-5.18399c1.8,0 3.636,0 5.471,0z" clip-rule="evenodd"/>
     <path id="svg_14" stroke-width="0.036" stroke-miterlimit="10" stroke="#000000" fill-rule="evenodd" d="m13.898,223.826004c-2.556,0.647995 -4.535999,2.123993 -5.796,4.571991c-1.368,2.376007 -2.772,6.516998 -2.124,9.900009s4.572,6.875992 5.94,10.043991c1.188,2.987 2.52,4.464005 1.224,7.919998c-1.440001,3.384003 -4.536,7.451996 -9.432,12.347992l-3.671,0c2.844,-3.562988 4.68,-6.478973 5.652,-9.287994c0.828,-2.843994 0.684,-4.354996 0,-7.163986c-0.864,-2.951004 -3.168,-6.659012 -4.14,-9.611008c-0.972,-2.916 -1.62,-5.724991 -1.368,-7.884995c0.252,-2.339996 1.116,-3.852005 2.592,-5.651001c1.368,-1.908005 3.204,-3.492004 5.652,-5.184998c1.8,0 3.636,0 5.471,0z" clip-rule="evenodd"/>
     <path id="svg_15" stroke-width="0.036" stroke-miterlimit="10" stroke="#000000" fill-rule="evenodd" d="m13.898,313.358002c-2.556,-0.68399 -4.535999,-2.160004 -5.796,-4.571991c-1.368,-2.447021 -2.772,-6.624023 -2.124,-9.899017c0.648,-3.492004 4.572,-6.983978 5.94,-10.044006c1.188,-3.096985 2.52,-4.53598 1.224,-7.919983c-1.440001,-3.492004 -4.536,-7.416016 -9.432,-12.313019l-3.671,0c2.844,3.384003 4.68,6.517029 5.652,9.252014c0.828,2.735992 0.684,4.283997 0,7.164001c-0.864,2.80899 -3.168,6.516998 -4.14,9.575989c-0.972,2.880005 -1.62,5.652008 -1.368,7.920013c0.252,2.195984 1.116,3.852997 2.592,5.652008c1.368,1.871979 3.204,3.419983 5.652,5.18399c1.8,0 3.636,0 5.471,0z" clip-rule="evenodd"/>
     <path id="svg_16" stroke-width="0.036" stroke-miterlimit="10" stroke="#000000" fill-rule="evenodd" d="m223.813995,13.911c0.64801,-2.556001 2.124008,-4.536 4.572006,-5.796c2.375992,-1.368 6.515991,-2.772 9.899994,-2.124c3.384003,0.648 6.875992,4.572 10.043991,5.94c2.988007,1.188001 4.464005,2.52 7.920013,1.224c3.419983,-1.439 7.380005,-4.535999 12.312012,-9.432l0,-3.672c-3.564026,2.844 -6.480011,4.68 -9.288025,5.652c-2.843994,0.828 -4.356003,0.684 -7.164001,0c-2.87999,-0.864 -6.623993,-3.168 -9.575989,-4.14c-2.988007,-0.972 -5.723999,-1.62 -7.920013,-1.368c-2.231995,0.252 -3.923996,1.116 -5.615997,2.592c-1.800003,1.368 -3.528,3.204 -5.18399,5.652c0,1.8 0,3.636 0,5.472z" clip-rule="evenodd"/>
     <path id="svg_17" stroke-width="0.036" stroke-miterlimit="10" stroke="#000000" fill-rule="evenodd" d="m313.311005,13.911c-0.68399,-2.556001 -2.160004,-4.536 -4.571991,-5.796c-2.484009,-1.368 -6.553009,-2.772 -9.863007,-2.124c-3.492004,0.648 -6.984009,4.572 -10.045013,5.94c-3.096008,1.188001 -4.535004,2.52 -7.919983,1.224c-3.420013,-1.439 -7.488007,-4.535999 -12.348022,-9.432l0,-3.672c3.492035,2.844 6.443024,4.68 9.287018,5.652c2.735992,0.828 4.285004,0.684 7.164001,0c2.80899,-0.864 6.518005,-3.168 9.575989,-4.14c2.881012,-0.972 5.652008,-1.62 7.920013,-1.368c2.125,0.252 3.815979,1.116 5.617004,2.592c1.764008,1.368 3.492004,3.204 5.18399,5.652c0,1.8 0,3.636 0,5.472z" clip-rule="evenodd"/>
     <path id="svg_18" stroke-width="0.036" stroke-miterlimit="10" stroke="#000000" fill-rule="evenodd" d="m402.84201,13.911c-0.68399,-2.556001 -2.160004,-4.536 -4.571991,-5.796c-2.447021,-1.368 -6.623016,-2.772 -9.89801,-2.124c-3.492004,0.648 -6.984009,4.572 -10.045013,5.94c-3.095978,1.188001 -4.534973,2.52 -7.919983,1.224c-3.420013,-1.439 -7.488007,-4.535999 -12.347992,-9.432l0,-3.672c3.491974,2.844 6.442993,4.68 9.286987,5.652c2.735992,0.828 4.285004,0.684 7.164001,0c2.80899,-0.864 6.518005,-3.168 9.575989,-4.14c2.881012,-0.972 5.652008,-1.62 7.920013,-1.368c2.196991,0.252 3.854004,1.116 5.652008,2.592c1.872986,1.368 3.419983,3.204 5.18399,5.652c0,1.8 0,3.636 0,5.472z" clip-rule="evenodd"/>
     <path id="svg_19" stroke-width="0.036" stroke-miterlimit="10" stroke="#000000" fill-rule="evenodd" d="m313.311005,13.911c0.64801,-2.556001 2.122986,-4.536 4.571991,-5.796c2.375,-1.368 6.515991,-2.772 9.899994,-2.124c3.382996,0.648 6.875,4.572 10.042999,5.94c2.988007,1.188001 4.464996,2.52 7.920013,1.224c3.419983,-1.439 7.381012,-4.535999 12.312988,-9.432l0,-3.672c-3.492004,2.844 -6.587982,4.68 -9.289001,5.652c-2.733978,0.828 -4.462982,0.684 -7.126984,0c-2.843994,-0.864 -6.695007,-3.168 -9.610992,-4.14c-2.916016,-0.972 -5.725006,-1.62 -7.88501,-1.368c-2.339996,0.252 -3.85199,1.116 -5.652008,2.592c-1.90799,1.368 -3.492004,3.204 -5.18399,5.652c0,1.8 0,3.636 0,5.472z" clip-rule="evenodd"/>
     <path id="svg_20" stroke-width="0.036" stroke-miterlimit="10" stroke="#000000" fill-rule="evenodd" d="m402.84201,13.911c0.686005,-2.556001 2.018005,-4.536 4.536987,-5.796c2.375,-1.368 6.516022,-2.772 9.900024,-2.124c3.382996,0.648 6.875,4.572 10.042999,5.94c2.987976,1.188001 4.464996,2.52 7.919983,1.224c3.38501,-1.439 7.453003,-4.535999 12.347992,-9.432l0,-3.672c-3.562988,2.844 -6.478973,4.68 -9.286987,5.652c-2.843994,0.828 -4.355011,0.684 -7.164001,0c-2.881012,-0.864 -6.625,-3.168 -9.575989,-4.14c-2.988007,-0.972 -5.725006,-1.62 -7.920013,-1.368c-2.268005,0.252 -3.960999,1.116 -5.652008,2.592c-1.798981,1.368 -3.563995,3.204 -5.14798,5.652c-0.001007,1.8 -0.001007,3.636 -0.001007,5.472z" clip-rule="evenodd"/>
     <path id="svg_21" stroke-width="0.036" stroke-miterlimit="10" stroke="#000000" fill-rule="evenodd" d="m492.338013,13.911c-0.68399,-2.556001 -2.160004,-4.536 -4.571991,-5.796c-2.447021,-1.368 -6.623016,-2.772 -9.89801,-2.124c-3.492004,0.648 -6.984009,4.572 -10.045013,5.94c-3.095978,1.188001 -4.534973,2.52 -7.919983,1.224c-3.492004,-1.439 -7.416016,-4.535999 -12.313019,-9.432l0,-3.672c3.457001,2.844 6.553009,4.68 9.289001,5.652c2.627014,0.828 4.355011,0.684 7.127014,0c2.735992,-0.864 6.588013,-3.168 9.613007,-4.14c2.878998,-0.972 5.649994,-1.62 7.919983,-1.368c2.123016,0.252 3.813995,1.116 5.615021,2.592c1.763977,1.368 3.491974,3.204 5.18399,5.652c0,1.8 0,3.636 0,5.472z" clip-rule="evenodd"/>
     <path id="svg_22" stroke-width="0.036" stroke-miterlimit="10" stroke="#000000" fill-rule="evenodd" d="m13.898,313.358002c-2.592,1.115997 -4.572,2.59201 -5.796,4.571991c-1.26,1.90802 -2.412,4.608002 -1.8,7.128021c0.576,2.303986 3.492,4.967987 4.86,7.307983c1.224,2.341003 2.088,4.681 2.448,6.876007c0.252001,2.231995 -0.108,4.177002 -0.936,6.229004l-12.635,12.634979c2.844,-3.562988 4.68,-6.479004 5.652,-9.287994c0.828,-2.843994 0.684,-4.355011 0,-7.164001c-0.864,-2.880005 -3.168,-6.623993 -4.14,-9.575989c-0.972,-2.987 -1.62,-5.723999 -1.368,-7.920013c0.252,-2.230988 1.116,-3.924011 2.592,-5.61499c1.368,-1.800995 3.204,-3.528015 5.652,-5.184998c1.8,0 3.636,0 5.471,0z" clip-rule="evenodd"/>
     <path id="svg_23" stroke-width="0.036" stroke-miterlimit="10" stroke="#000000" fill-rule="evenodd" d="m44.786999,344.246002c-1.115997,2.628998 -2.627998,4.428986 -4.535999,5.796997c-1.98,1.29599 -4.787998,2.230988 -7.163998,1.835999c-2.412003,-0.612 -5.040001,-3.671997 -7.308002,-4.895996c-2.483999,-1.368011 -4.643999,-2.123993 -6.875999,-2.411987c-2.268,-0.252014 -4.212,0 -6.228,0.899994l-12.636,12.634979c3.492,-2.807983 6.444,-4.679993 9.288,-5.615997c2.736,-0.936005 4.284,-0.791992 7.164,0c2.808001,0.684998 6.516001,3.023987 9.576,4.104004c2.880001,0.863983 5.652,1.548004 7.92,1.367981c2.195999,-0.359985 3.852001,-1.224976 5.652,-2.592987c1.764,-1.402985 3.528,-3.274994 5.147999,-5.61499c0,-1.834991 0,-3.67099 0,-5.507996z" clip-rule="evenodd"/>
     <path id="svg_24" stroke-width="0.036" stroke-miterlimit="10" stroke="#000000" fill-rule="evenodd" d="m492.338013,344.210999c1.007996,2.627991 2.664001,4.428009 4.571991,5.79599c1.873016,1.296021 4.71701,2.231018 7.164001,1.835999c2.304993,-0.612 4.968994,-3.671997 7.30899,-4.895996c2.375,-1.367981 4.606995,-2.123993 6.840027,-2.411987c2.231995,-0.252014 4.175964,0 6.229004,0.899994l12.671997,12.636017c-3.564026,-2.808014 -6.480042,-4.680023 -9.289001,-5.615021c-2.843994,-0.936981 -4.355042,-0.792999 -7.164001,0c-2.879028,0.684021 -6.622986,3.02301 -9.576019,4.104004c-2.985992,0.864014 -5.722992,1.548004 -7.919983,1.368011c-2.268005,-0.360016 -3.959015,-1.225006 -5.649994,-2.59201c-1.90802,-1.403992 -3.492004,-3.23999 -5.186005,-5.652008c-0.001007,-1.800995 -0.001007,-3.636993 -0.001007,-5.472992z" clip-rule="evenodd"/>
     <path id="svg_25" stroke-width="0.036" stroke-miterlimit="10" stroke="#000000" fill="none" d="m447.589996,358.070007c3.492004,-2.807983 6.445007,-4.679993 9.289001,-5.61499c2.735992,-0.937012 4.28299,-0.792999 7.164001,0c2.807007,0.68399 6.515991,3.02298 9.575989,4.104004c2.878998,0.863983 5.650024,1.548004 7.920013,1.367981c2.195007,-0.359985 3.85199,-1.225006 5.652008,-2.59198c1.763977,-1.404022 3.526978,-3.240021 5.145996,-5.652008"/>
     <path id="svg_26" stroke-width="0.036" stroke-miterlimit="10" stroke="#000000" fill-rule="evenodd" d="m523.262024,313.321991c2.59198,1.115997 4.464966,2.59201 5.762024,4.571991c1.294983,1.90802 2.22998,4.608002 1.835999,7.128021c-0.57605,2.303986 -3.637024,4.967987 -4.861023,7.307983c-1.332031,2.341003 -2.195007,4.681 -2.447021,6.877014c-0.251953,2.230988 0,4.175995 0.900024,6.227997l12.671997,12.635986c-2.880981,-3.562988 -4.71698,-6.479004 -5.651978,-9.287994c-0.936035,-2.843994 -0.79303,-4.355011 0,-7.164001c0.68396,-2.880005 3.022949,-6.623993 4.104004,-9.575012c0.862976,-2.987976 1.54895,-5.724976 1.368958,-7.919983c-0.360962,-2.231995 -1.224976,-3.924988 -2.593994,-5.615997c-1.401978,-1.800018 -3.274963,-3.528015 -5.61499,-5.184998c-1.802002,-0.001007 -3.638,-0.001007 -5.473999,-0.001007z" clip-rule="evenodd"/>
     <path id="svg_27" stroke-width="0.036" stroke-miterlimit="10" stroke="#000000" fill-rule="evenodd" d="m492.338013,344.210999c-0.718994,2.519989 -2.088013,4.5 -4.535004,5.79599c-2.449005,1.296021 -6.625,2.700012 -9.899994,2.124023c-3.492004,-0.756012 -6.984009,-4.681 -10.042999,-5.940002c-3.097992,-1.296021 -4.537018,-2.628021 -7.921997,-1.223999c-3.420013,1.402985 -7.486023,4.5 -12.348022,9.431976l0,3.672028c3.492004,-2.808014 6.445007,-4.680023 9.289001,-5.615021c2.736023,-0.936981 4.28302,-0.792999 7.164001,0c2.807007,0.684021 6.516022,3.02301 9.576019,4.104004c2.878998,0.864014 5.649994,1.548004 7.919983,1.368011c2.123016,-0.360016 3.813995,-1.225006 5.615021,-2.59201c1.763977,-1.403992 3.491974,-3.23999 5.18399,-5.652008c0,-1.800995 0,-3.636993 0,-5.472992z" clip-rule="evenodd"/>
     <path id="svg_28" stroke-width="0.036" stroke-miterlimit="10" stroke="#000000" fill-rule="evenodd" d="m402.84201,344.210999c0.64801,2.519989 2.125,4.5 4.571991,5.79599c2.377014,1.296021 6.516022,2.700012 9.899994,2.124023c3.38501,-0.756012 6.877014,-4.681 10.045013,-5.940002c2.985992,-1.296021 4.463013,-2.628021 7.920013,-1.223999c3.419983,1.402985 7.378998,4.5 12.310974,9.431976l0,3.672028c-3.491974,-2.808014 -6.587982,-4.680023 -9.286987,-5.615021c-2.735992,-0.936981 -4.464996,-0.792999 -7.128998,0c-2.843994,0.684021 -6.695007,3.02301 -9.610992,4.104004c-2.988007,0.864014 -5.725006,1.548004 -7.920013,1.368011c-2.231995,-0.360016 -3.923981,-1.225006 -5.61499,-2.59201c-1.800995,-1.403992 -3.528992,-3.23999 -5.186005,-5.652008c0,-1.800995 0,-3.636993 0,-5.472992z" clip-rule="evenodd"/>
     <path id="svg_29" stroke-width="0.036" stroke-miterlimit="10" stroke="#000000" fill-rule="evenodd" d="m313.346008,344.210999c0.64801,2.519989 2.125,4.5 4.571991,5.79599c2.412018,1.296021 6.445007,2.700012 9.865021,2.124023c3.382996,-0.756012 6.875,-4.681 10.042999,-5.940002c2.987976,-1.296021 4.464996,-2.628021 7.919983,-1.223999c3.38501,1.402985 7.453003,4.5 12.348022,9.431976l0,3.672028c-3.563019,-2.808014 -6.479004,-4.680023 -9.287018,-5.615021c-2.843994,-0.936981 -4.355011,-0.792999 -7.164001,0c-2.880981,0.684021 -6.625,3.02301 -9.575989,4.104004c-2.988007,0.864014 -5.725006,1.548004 -7.920013,1.368011c-2.231995,-0.360016 -3.923981,-1.225006 -5.61499,-2.59201c-1.800995,-1.403992 -3.528992,-3.23999 -5.186005,-5.652008c0,-1.800995 0,-3.636993 0,-5.472992z" clip-rule="evenodd"/>
     <path id="svg_30" stroke-width="0.036" stroke-miterlimit="10" stroke="#000000" fill-rule="evenodd" d="m402.84201,344.210999c-0.68399,2.519989 -2.160004,4.5 -4.571991,5.79599c-2.447021,1.296021 -6.623016,2.700012 -9.89801,2.124023c-3.492004,-0.756012 -6.984009,-4.681 -10.045013,-5.940002c-2.987976,-1.296021 -4.644989,-2.628021 -7.882996,-1.223999c-3.419983,1.402985 -7.487976,4.5 -12.349976,9.431976l0,3.672028c3.491974,-2.808014 6.444977,-4.680023 9.288971,-5.615021c2.736023,-0.936981 4.28302,-0.792999 7.164001,0c2.809021,0.684021 6.516022,3.02301 9.576019,4.104004c2.878998,0.864014 5.652008,1.548004 7.919983,1.368011c2.123016,-0.360016 3.81601,-1.225006 5.615021,-2.59201c1.763977,-1.403992 3.492004,-3.23999 5.18399,-5.652008c0,-1.800995 0,-3.636993 0,-5.472992z" clip-rule="evenodd"/>
     <path id="svg_31" stroke-width="0.036" stroke-miterlimit="10" stroke="#000000" fill-rule="evenodd" d="m523.262024,313.321991c2.557007,-0.68399 4.429993,-2.160004 5.762024,-4.571014c1.222961,-2.447998 2.770996,-6.623993 2.157959,-9.899994c-0.755981,-3.492004 -4.679993,-6.983978 -5.938965,-10.044006c-1.295044,-3.095978 -2.627014,-4.53598 -1.225037,-7.919983c1.403992,-3.420013 4.5,-7.488007 9.434021,-12.347992l3.671997,0c-2.880981,3.490997 -4.71698,6.442993 -5.651978,9.286987c-0.936035,2.735992 -0.79303,4.283997 0,7.164001c0.68396,2.80899 3.022949,6.516998 4.104004,9.575989c0.862976,2.880005 1.54895,5.652008 1.368958,7.920013c-0.360962,2.195984 -1.224976,3.852997 -2.593994,5.652008c-1.401978,1.871979 -3.274963,3.419983 -5.61499,5.18399c-1.802002,0 -3.638,0 -5.473999,0z" clip-rule="evenodd"/>
     <path id="svg_32" stroke-width="0.036" stroke-miterlimit="10" stroke="#000000" fill-rule="evenodd" d="m523.262024,223.791c2.557007,0.647003 4.429993,2.123993 5.762024,4.570999c1.222961,2.376007 2.770996,6.516998 2.157959,9.899994c-0.755981,3.384003 -4.679993,6.876007 -5.938965,10.044006c-1.295044,2.988007 -2.627014,4.464005 -1.225037,7.920013c1.403992,3.419983 4.5,7.379974 9.434021,12.312988l3.671997,0c-2.880981,-3.492004 -4.71698,-6.588989 -5.651978,-9.287994c-0.936035,-2.735992 -0.79303,-4.465012 0,-7.128006c0.68396,-2.845001 3.022949,-6.695999 4.104004,-9.612c0.862976,-2.988007 1.54895,-5.725006 1.368958,-7.919998c-0.360962,-2.23201 -1.224976,-3.923996 -2.593994,-5.615997c-1.401978,-1.800003 -3.274963,-3.528 -5.61499,-5.184006c-1.802002,0 -3.638,0 -5.473999,0z" clip-rule="evenodd"/>
     <path id="svg_33" stroke-width="0.036" stroke-miterlimit="10" stroke="#000000" fill-rule="evenodd" d="m523.262024,134.294006c2.557007,0.64801 4.429993,2.124008 5.762024,4.572006c1.222961,2.375992 2.770996,6.515991 2.157959,9.899994c-0.755981,3.384003 -4.679993,6.876007 -5.938965,10.044006c-1.295044,2.987991 -2.627014,4.464005 -1.225037,7.919998c1.403992,3.419998 4.5,7.380005 9.434021,12.313004l3.671997,0c-2.880981,-3.564011 -4.71698,-6.480011 -5.651978,-9.289001c-0.936035,-2.844009 -0.79303,-4.356003 0,-7.164001c0.68396,-2.880005 3.022949,-6.624008 4.104004,-9.576004c0.862976,-2.987991 1.54895,-5.723999 1.368958,-7.919998c-0.360962,-2.231995 -1.224976,-3.923996 -2.593994,-5.615997c-1.401978,-1.800003 -3.274963,-3.528 -5.61499,-5.184006c-1.802002,0 -3.638,0 -5.473999,0z" clip-rule="evenodd"/>
     <path id="svg_34" stroke-width="0.036" stroke-miterlimit="10" stroke="#000000" fill-rule="evenodd" d="m523.262024,223.791c2.557007,-0.684998 4.429993,-2.160004 5.762024,-4.572006c1.222961,-2.483994 2.770996,-6.551987 2.157959,-9.863998c-0.755981,-3.491989 -4.679993,-6.983994 -5.938965,-10.043991c-1.295044,-3.096008 -2.627014,-4.536011 -1.225037,-7.919998c1.403992,-3.420013 4.5,-7.488007 9.434021,-12.348007l3.671997,0c-2.880981,3.490997 -4.71698,6.442993 -5.651978,9.287003c-0.936035,2.735992 -0.79303,4.283997 0,7.164001c0.68396,2.80899 3.022949,6.516998 4.104004,9.576004c0.862976,2.87999 1.54895,5.651993 1.368958,7.919998c-0.360962,2.123993 -1.224976,3.815994 -2.593994,5.615997c-1.401978,1.763992 -3.274963,3.492004 -5.61499,5.184998c-1.802002,0 -3.638,0 -5.473999,0z" clip-rule="evenodd"/>
     <path id="svg_35" stroke-width="0.036" stroke-miterlimit="10" stroke="#000000" fill-rule="evenodd" d="m523.262024,134.294006c2.557007,-0.68399 4.429993,-2.160004 5.762024,-4.571991c1.222961,-2.448006 2.770996,-6.624008 2.157959,-9.900009c-0.755981,-3.491997 -4.679993,-6.983994 -5.938965,-10.043999c-1.295044,-3.096001 -2.627014,-4.535995 -1.225037,-7.919998c1.403992,-3.491997 4.5,-7.416 9.434021,-12.311996l3.671997,0c-2.880981,3.455994 -4.71698,6.551994 -5.651978,9.287994c-0.936035,2.628006 -0.79303,4.356003 0,7.128006c0.68396,2.736 3.022949,6.587997 4.104004,9.612c0.862976,2.879997 1.54895,5.652 1.368958,7.919998c-0.360962,2.124001 -1.224976,3.816002 -2.593994,5.616005c-1.401978,1.763992 -3.274963,3.491989 -5.61499,5.18399c-1.802002,0 -3.638,0 -5.473999,0z" clip-rule="evenodd"/>
     <path id="svg_36" stroke-width="0.036" stroke-miterlimit="10" stroke="#000000" fill-rule="evenodd" d="m523.262024,44.799c2.557007,0.646999 4.429993,2.124001 5.762024,4.571999c1.222961,2.412003 2.770996,6.444 2.157959,9.864002c-0.755981,3.383999 -4.679993,6.875999 -5.938965,10.043999c-1.295044,2.987999 -2.627014,4.463997 -1.225037,7.919998c1.403992,3.384003 4.5,7.452003 9.434021,12.348l3.671997,0c-2.880981,-3.563995 -4.71698,-6.479996 -5.651978,-9.287994c-0.936035,-2.844002 -0.79303,-4.356003 0,-7.164001c0.68396,-2.880005 3.022949,-6.624001 4.104004,-9.576c0.862976,-2.988003 1.54895,-5.724003 1.368958,-7.920002c-0.360962,-2.231998 -1.224976,-3.924 -2.593994,-5.615997c-1.401978,-1.800003 -3.274963,-3.528 -5.61499,-5.184002c-1.802002,0 -3.638,0 -5.473999,0z" clip-rule="evenodd"/>
     <path id="svg_37" stroke-width="0.036" stroke-miterlimit="10" stroke="#000000" fill-rule="evenodd" d="m313.346008,344.210999c-0.68399,2.519989 -2.160004,4.5 -4.570007,5.79599c-2.449005,1.296021 -6.625,2.700012 -9.899994,2.124023c-3.492004,-0.756012 -6.984009,-4.681 -10.044983,-5.940002c-3.096008,-1.296021 -4.535004,-2.628021 -7.920013,-1.223999c-3.492004,1.402985 -7.416016,4.5 -12.312012,9.431976l0,3.672028c3.456024,-2.808014 6.552002,-4.680023 9.288025,-5.615021c2.626984,-0.936981 4.35498,-0.792999 7.126984,0c2.735992,0.684021 6.588013,3.02301 9.613007,4.104004c2.878998,0.864014 5.652008,1.548004 7.919983,1.368011c2.123016,-0.360016 3.81601,-1.225006 5.615021,-2.59201c1.763977,-1.403992 3.492004,-3.23999 5.18399,-5.652008c0,-1.800995 0,-3.636993 0,-5.472992z" clip-rule="evenodd"/>
     <path id="svg_38" stroke-width="0.036" stroke-miterlimit="10" stroke="#000000" fill-rule="evenodd" d="m223.813995,344.210999c0.64801,2.519989 2.124008,4.5 4.572006,5.79599c2.375992,1.296021 6.515991,2.700012 9.899994,2.124023c3.384003,-0.756012 6.875992,-4.681 10.043991,-5.940002c2.988007,-1.296021 4.464005,-2.628021 7.920013,-1.223999c3.384003,1.402985 7.451996,4.5 12.347992,9.431976l0,3.672028c-3.563995,-2.808014 -6.480011,-4.680023 -9.287994,-5.615021c-2.843994,-0.936981 -4.356003,-0.792999 -7.164001,0c-2.880005,0.684021 -6.624008,3.02301 -9.576004,4.104004c-2.988007,0.864014 -5.723999,1.548004 -7.919998,1.368011c-2.268005,-0.360016 -3.960007,-1.225006 -5.652008,-2.59201c-1.90799,-1.403992 -3.491989,-3.23999 -5.18399,-5.652008c0,-1.800995 0,-3.636993 0,-5.472992z" clip-rule="evenodd"/>
     <path id="svg_39" stroke-width="0.036" stroke-miterlimit="10" stroke="#000000" fill-rule="evenodd" d="m134.317993,344.210999c0.647995,2.519989 2.123993,4.5 4.571991,5.79599c2.376007,1.296021 6.516006,2.700012 9.900009,2.124023c3.384003,-0.756012 6.875992,-4.681 10.043991,-5.940002c2.988007,-1.296021 4.464005,-2.628021 7.919998,-1.223999c3.420013,1.402985 7.380005,4.5 12.312012,9.431976l0,3.672028c-3.492004,-2.808014 -6.587997,-4.680023 -9.28801,-5.615021c-2.735992,-0.936981 -4.463989,-0.792999 -7.127991,0c-2.844009,0.684021 -6.695999,3.02301 -9.612,4.104004c-2.988007,0.864014 -5.723999,1.548004 -7.919998,1.368011c-2.23201,-0.360016 -3.924011,-1.225006 -5.616013,-2.59201c-1.799988,-1.403992 -3.528,-3.23999 -5.18399,-5.652008c0,-1.800995 0,-3.636993 0,-5.472992z" clip-rule="evenodd"/>
     <path id="svg_40" stroke-width="0.036" stroke-miterlimit="10" stroke="#000000" fill-rule="evenodd" d="m223.813995,344.210999c-0.720001,2.519989 -2.087997,4.5 -4.535995,5.79599c-2.447998,1.296021 -6.623993,2.700012 -9.899994,2.124023c-3.492004,-0.756012 -6.984009,-4.681 -10.044006,-5.940002c-3.095993,-1.296021 -4.535995,-2.628021 -7.919998,-1.223999c-3.419998,1.402985 -7.488007,4.5 -12.348007,9.431976l0,3.672028c3.492004,-2.808014 6.444,-4.680023 9.28801,-5.615021c2.735992,-0.936981 4.283997,-0.792999 7.164001,0c2.807999,0.684021 6.515991,3.02301 9.575989,4.104004c2.880005,0.864014 5.652008,1.548004 7.920013,1.368011c2.195999,-0.360016 3.85199,-1.225006 5.651993,-2.59201c1.763992,-1.403992 3.528,-3.23999 5.147995,-5.652008c0,-1.800995 0,-3.636993 0,-5.472992z" clip-rule="evenodd"/>
     <path id="svg_41" stroke-width="0.036" stroke-miterlimit="10" stroke="#000000" fill-rule="evenodd" d="m134.317993,344.210999c-0.684006,2.519989 -2.160004,4.5 -4.572006,5.79599c-2.483994,1.296021 -6.551994,2.700012 -9.863998,2.124023c-3.491997,-0.756012 -6.984001,-4.681 -10.043999,-5.940002c-3.096001,-1.296021 -4.536003,-2.628021 -7.919998,-1.223999c-3.419998,1.402985 -7.487999,4.5 -12.348,9.431976l0,3.672028c3.491997,-2.808014 6.444,-4.680023 9.287994,-5.615021c2.736,-0.936981 4.284004,-0.792999 7.164001,0c2.807999,0.684021 6.515999,3.02301 9.576004,4.104004c2.879997,0.864014 5.652,1.548004 7.919998,1.368011c2.124001,-0.360016 3.816002,-1.225006 5.615997,-2.59201c1.764008,-1.403992 3.492004,-3.23999 5.184006,-5.652008c0,-1.800995 0,-3.636993 0,-5.472992z" clip-rule="evenodd"/>
     <path id="svg_42" stroke-width="0.036" stroke-miterlimit="10" stroke="#000000" fill-rule="evenodd" d="m44.823002,344.210999c0.647999,2.519989 2.123997,4.5 4.571999,5.79599c2.375999,1.296021 6.515999,2.700012 9.899998,2.124023c3.384003,-0.756012 6.875999,-4.681 10.043999,-5.940002c2.880005,-1.296021 4.536003,-2.628021 7.884003,-1.223999c3.384003,1.402985 7.452003,4.5 12.348,9.431976l0,3.672028c-3.563995,-2.808014 -6.479996,-4.680023 -9.288002,-5.615021c-2.843994,-0.936981 -4.355995,-0.792999 -7.163994,0c-2.880005,0.684021 -6.624001,3.02301 -9.576004,4.104004c-2.987999,0.864014 -5.723999,1.548004 -7.919998,1.368011c-2.232002,-0.360016 -3.924,-1.225006 -5.616001,-2.59201c-1.799999,-1.403992 -3.528,-3.23999 -5.183998,-5.652008c0,-1.800995 0,-3.636993 0,-5.472992z" clip-rule="evenodd"/>
     <path id="svg_43" stroke-width="0.036" stroke-miterlimit="10" stroke="#000000" fill-rule="evenodd" d="m523.262024,44.763c2.59198,-1.116001 4.464966,-2.628002 5.762024,-4.535999c1.294983,-1.98 2.22998,-4.788002 1.835999,-7.164001c-0.57605,-2.412001 -3.637024,-5.039999 -4.861023,-7.308001c-1.332031,-2.411999 -2.195007,-4.643999 -2.447021,-6.839998c-0.251953,-2.232 0,-4.320001 0.900024,-6.264001l12.671997,-12.636c-2.880981,3.492 -4.71698,6.444 -5.651978,9.288c-0.936035,2.735999 -0.79303,4.283999 0,7.163999c0.68396,2.808001 3.022949,6.516001 4.104004,9.576c0.862976,2.880001 1.54895,5.652 1.368958,7.920002c-0.360962,2.195999 -1.224976,3.851997 -2.593994,5.652c-1.401978,1.764 -3.274963,3.528 -5.61499,5.147999c-1.802002,0 -3.638,0 -5.473999,0z" clip-rule="evenodd"/>
     <path id="svg_44" stroke-width="0.036" stroke-miterlimit="10" stroke="#000000" fill-rule="evenodd" d="m492.338013,13.875c1.007996,-2.592 2.664001,-4.572 4.571991,-5.796c1.873016,-1.260001 4.71701,-2.412001 7.164001,-1.800001c2.304993,0.576 4.968994,3.492 7.30899,4.86c2.375,1.224 4.606995,2.088 6.840027,2.448c2.231995,0.252 4.175964,-0.108 6.229004,-0.936l12.671997,-12.636c-3.564026,2.844 -6.480042,4.68 -9.289001,5.652c-2.843994,0.828 -4.355042,0.684 -7.164001,0c-2.879028,-0.864 -6.622986,-3.168 -9.576019,-4.14c-2.985992,-0.972 -5.722992,-1.62 -7.919983,-1.368c-2.268005,0.252 -3.959015,1.116 -5.649994,2.592c-1.90802,1.368 -3.492004,3.204 -5.186005,5.652c-0.001007,1.8 -0.001007,3.636 -0.001007,5.472z" clip-rule="evenodd"/>
     <path id="svg_45" stroke-width="0.036" stroke-miterlimit="10" stroke="#000000" fill-rule="evenodd" d="m481.25,284.811005c2.196991,4.895996 5.075989,9.468018 8.640991,14.14801c3.455017,4.606995 7.270996,9.431976 12.563995,13.35498c5.291016,3.81601 11.482025,7.09201 18.863007,9.684998l-31.175995,-0.791992l-8.278992,17.135986c-6.518005,-4.355988 -11.77301,-8.963989 -15.912018,-13.967987c-4.067993,-5.075989 -6.769989,-10.691986 -8.927979,-16.020996c-2.305023,-5.328003 -3.996002,-10.548004 -4.934021,-15.804016l29.161011,-7.738983z" clip-rule="evenodd"/>
     <path id="svg_46" stroke-width="0.036" stroke-miterlimit="10" stroke="#000000" fill-rule="evenodd" fill="#FFFFFF" d="m478.910004,287.690002c2.160004,3.671997 4.464996,7.380005 7.30899,11.269012c2.699005,3.85199 5.436005,8.423981 9.179993,11.770996c3.709015,3.203979 7.88501,5.687988 12.81601,7.595978l-20.953003,-1.043976l-7.054993,15.191986c-4.571991,-3.131989 -8.640991,-6.839996 -12.061005,-11.268005c-3.563995,-4.464996 -6.587982,-11.088989 -8.640991,-15.444c-2.050995,-4.463989 -3.130981,-8.171997 -3.382996,-11.268982l22.787994,-6.803009z" clip-rule="evenodd"/>
     <path id="svg_47" stroke-width="0.036" stroke-miterlimit="10" stroke="#000000" fill-rule="evenodd" d="m438.085999,288.266998c-2.268005,4.895996 -5.145996,9.467987 -8.639008,14.147003c-3.563995,4.608002 -7.380981,9.432983 -12.563995,13.355988c-5.328003,3.81601 -11.519989,7.09201 -18.86499,9.684021l31.178009,-0.792023l8.278992,17.137024c6.47998,-4.429016 11.735992,-8.96402 15.911987,-14.003998c4.031006,-5.14801 6.588013,-10.620026 8.928009,-15.984009c2.268005,-5.364014 3.924011,-10.511993 4.968994,-15.839996l-29.197998,-7.70401z" clip-rule="evenodd"/>
     <path id="svg_48" stroke-width="0.036" stroke-miterlimit="10" stroke="#000000" fill-rule="evenodd" fill="#FFFFFF" d="m440.463013,291.145996c-2.160004,3.600006 -4.606995,7.343994 -7.343994,11.231995c-2.809021,3.924011 -5.545013,8.460022 -9.180023,11.808014c-3.743988,3.167999 -7.921997,5.79599 -12.815979,7.596008l20.950989,-1.044006l7.057007,15.156006c4.535004,-3.059998 8.604004,-6.804016 12.061005,-11.232025c3.454987,-4.463989 6.479004,-11.087982 8.639008,-15.442993c2.015991,-4.463989 3.095978,-8.171997 3.384979,-11.268982l-22.752991,-6.804016z" clip-rule="evenodd"/>
     <path id="svg_49" stroke-width="0.036" stroke-miterlimit="10" stroke="#000000" fill-rule="evenodd" d="m458.199005,221.994003c21.997986,0 39.85199,17.854004 39.85199,39.852982s-17.853973,39.85202 -39.85199,39.85202s-39.854004,-17.854004 -39.854004,-39.85202s17.855988,-39.852982 39.854004,-39.852982" clip-rule="evenodd"/>
     <path id="svg_50" stroke-width="0.036" stroke-miterlimit="10" stroke="#000000" fill-rule="evenodd" fill="#FFFFFF" d="m458.078003,224.466995c20.567993,0 37.26001,16.692001 37.26001,37.259995s-16.69101,37.26001 -37.26001,37.26001c-20.56601,0 -37.26001,-16.692017 -37.26001,-37.26001s16.694,-37.259995 37.26001,-37.259995" clip-rule="evenodd"/>
     <path id="svg_51" fill-rule="evenodd" d="m180.938004,76.190002c-1.512009,2.375999 -2.988007,4.283997 -4.428009,5.795998c-1.475998,1.512001 -2.771988,2.375999 -3.888,2.699997c-1.151993,0.288002 -2.483994,0.360001 -3.923996,0.108002c-1.475998,-0.18 -2.843994,-0.612 -4.212006,-1.223999c-2.375992,-1.152 -4.391998,-2.879997 -6.119995,-5.148003c-1.727997,-2.304001 -2.843994,-4.787994 -3.347992,-7.523994c-0.576004,-2.844002 -0.432007,-5.688004 0.287994,-8.532001c0.755997,-2.880001 2.087997,-5.507999 3.996002,-7.956001c1.440002,-1.799999 3.059998,-3.383999 4.895996,-4.644001c1.800003,-1.259998 3.636002,-2.16 5.436005,-2.627998c1.584,-0.396 2.843994,-0.468002 3.923996,-0.18c1.115997,0.287998 1.727997,0.792 1.871994,1.584c0.072006,0.431999 0,0.972 -0.287994,1.512001c-0.251999,0.576 -1.043991,1.619999 -2.268005,3.096001c-0.575989,0.683998 -1.151993,1.368 -1.727997,2.087997c-0.972,-0.899998 -1.979996,-1.548 -3.059998,-1.835999c-1.080002,-0.360001 -2.160004,-0.360001 -3.311996,-0.071999c-1.908005,0.467999 -3.203995,1.691998 -4.031998,3.635998c-0.828003,1.944 -1.008011,4.32 -0.468002,7.091999c0.360001,1.908005 1.007996,3.744003 1.944,5.472c0.936005,1.655998 2.052002,3.096001 3.455994,4.356003c1.584,1.475998 3.384003,2.447998 5.400009,3.024002c2.015991,0.539993 3.996002,0.575996 5.940002,0.071999c0.539993,-0.144005 1.115997,-0.324005 1.691986,-0.576004c0.540009,-0.288002 1.080002,-0.612 1.62001,-1.007996c0.179993,0.251999 0.397003,0.503998 0.612,0.792zm20.016998,-4.067001c-0.863998,1.223999 -1.764008,2.484001 -2.664001,3.743996c-1.044006,1.404007 -1.979996,2.448006 -2.736008,3.060005c-0.791992,0.647995 -1.619995,1.080002 -2.519989,1.223999c-0.972,0.215996 -2.052002,0.035995 -3.20401,-0.431999c-1.223999,-0.431999 -2.339996,-1.188004 -3.419998,-2.160004c-1.007996,-0.900002 -1.871994,-2.015999 -2.519989,-3.203995s-1.044006,-2.484001 -1.223999,-3.780006c-0.252014,-1.727997 -0.180008,-3.383995 0.215988,-5.003998c0.360001,-1.655998 1.080002,-3.312 2.160004,-5.112c1.259995,-2.015999 2.520004,-3.599998 3.815994,-4.824001c1.332001,-1.223999 2.628006,-1.943996 3.888,-2.16c1.404007,-0.287998 2.700012,-0.035999 3.924011,0.756001s1.944,1.799999 2.123993,3.096001c0.143997,1.007999 -0.179993,2.124001 -1.007996,3.456001s-2.304001,3.023998 -4.428009,5.219997c-0.827988,0.828003 -1.655991,1.655998 -2.519989,2.484001c-0.251999,-0.323997 -0.503998,-0.648003 -0.756012,-0.972c1.044006,-1.043999 1.836014,-2.052002 2.304001,-2.951996c0.468002,-0.972004 0.684006,-1.764004 0.576004,-2.520004c-0.108002,-0.792 -0.576004,-1.439999 -1.367996,-2.015999c-0.720001,-0.576 -1.548004,-0.756001 -2.339996,-0.612c-0.972,0.18 -1.62001,0.719997 -2.016006,1.655998c-0.431992,0.900002 -0.539993,2.088001 -0.360001,3.456001c0.395996,2.556 1.584,4.751999 3.636002,6.515999c2.016006,1.800003 4.031998,2.520004 6.048004,2.160004c0.612,-0.108002 1.188004,-0.324005 1.763992,-0.648003c0.576004,-0.323997 1.152008,-0.792 1.800003,-1.295998c0.251007,0.286995 0.540009,0.574997 0.828003,0.863998zm7.416,5.399002c-0.072006,-0.540001 -0.108002,-1.188004 -0.143997,-1.800003c0,-0.143997 0,-0.216003 0,-0.251999c-0.756012,-7.452003 -1.404007,-12.276001 -1.908005,-14.472c-0.539993,-2.196003 -1.188004,-3.240002 -2.016006,-3.132c-0.215988,0.035999 -0.431992,0.107998 -0.720001,0.251999s-0.612,0.396 -1.007996,0.683998c-0.216003,-0.359997 -0.431992,-0.755997 -0.647995,-1.151997c1.655991,-1.692001 3.313004,-3.384003 5.003998,-5.112003c0.612,-0.612 1.151993,-1.115997 1.584,-1.403999c0.432007,-0.323997 0.792007,-0.503998 1.080002,-0.539997c0.647995,-0.108002 1.188004,0.251999 1.548004,1.007999c0.395996,0.756001 0.647995,2.087997 0.827988,3.851997c0,0.144001 0.036011,0.396 0.072006,0.756001c0,0.360001 0,0.612 0.035995,0.792c1.368011,-2.195999 2.556,-3.959999 3.708008,-5.327999c1.188004,-1.332001 2.015991,-2.051998 2.627991,-2.16c0.684006,-0.071999 1.368011,0.324001 1.980011,1.223999c0.612,0.864002 1.223999,2.232002 1.871994,4.139999c-1.656006,1.908001 -3.311996,3.816002 -4.968002,5.724003c-0.360001,-1.260002 -0.828003,-2.196003 -1.259995,-2.808002c-0.468002,-0.576 -0.972,-0.863998 -1.475998,-0.792c-0.828003,0.108002 -1.367996,0.684002 -1.62001,1.764c-0.215988,1.080002 -0.107986,3.708 0.28801,7.739998c0,0.288002 0.035995,0.612 0.071991,0.936005c0.180008,1.655998 0.360001,3.311996 0.576004,5.003998c-1.83699,1.693001 -3.671997,3.385002 -5.507996,5.076004zm26.423004,-28.439003c0.324005,-0.035999 0.755997,-0.035999 1.296005,-0.108002c0.612,0 1.043991,-0.035999 1.367996,-0.071999c0.684006,-0.035999 1.800003,-0.18 3.348007,-0.360001c0.179993,-0.035999 0.32399,-0.035999 0.395996,-0.035999c-1.512009,1.944 -3.024002,3.924 -4.535995,5.903999c-0.576004,0.035999 -1.188004,0.072002 -1.800003,0.108002c0,0.863998 0,1.691998 0.035995,2.663998c0,0.900002 0.072006,1.836002 0.108002,2.844002c0.216003,3.239998 0.539993,5.580002 0.972,6.947998s1.007996,2.015999 1.800003,1.944c0.108002,0 0.287994,-0.071999 0.468002,-0.108002c0.143997,-0.143997 0.360001,-0.251999 0.612,-0.431999c0.215988,0.396004 0.431992,0.792 0.68399,1.188004c-1.29599,1.115997 -2.591995,2.232002 -3.923996,3.348c-0.612,0.503998 -1.151993,0.900002 -1.656006,1.260002c-0.503998,0.287994 -0.899994,0.467995 -1.151993,0.503998c-1.044006,0.071999 -1.871994,-0.683998 -2.483994,-2.267998c-0.612,-1.548004 -1.044006,-3.924004 -1.224014,-7.020004c-0.107986,-1.584 -0.179993,-3.239998 -0.215988,-5.003998c-0.072006,-1.692001 -0.108002,-3.563999 -0.143997,-5.507999c-0.900009,0.035999 -1.836014,0.107998 -2.736008,0.143997c-0.863998,0 -1.800003,0 -2.699997,0c1.367996,-1.764 2.735992,-3.563999 4.104004,-5.363998c0.395996,0 0.827988,0 1.259995,-0.035999c0,-1.007999 0,-2.016003 -0.035995,-3.060001c2.051987,-1.764 4.103989,-3.528 6.192001,-5.327999c0,0.503998 -0.036011,1.691998 0,3.419998c0.000977,1.836002 0.000977,3.276001 -0.036011,4.428001zm11.268997,24.731003c-0.036011,-0.756004 0,-1.476006 0,-2.268005c-0.036011,-0.792 -0.072006,-2.015999 -0.108002,-3.599998c-0.143997,-6.371998 -0.360001,-10.332001 -0.684006,-11.843998c-0.32399,-1.548 -0.863998,-2.304001 -1.655991,-2.268002c-0.28801,0 -0.540009,0.071999 -0.863998,0.108002c-0.28801,0.107998 -0.612,0.287998 -0.936005,0.431999c-0.072006,-0.360001 -0.143997,-0.756001 -0.216003,-1.152c1.440002,-1.223999 2.880005,-2.448002 4.320007,-3.708c1.115997,-0.936001 1.871994,-1.548 2.339996,-1.872002c0.468002,-0.287998 0.899994,-0.431999 1.259995,-0.431999c1.512009,-0.071999 2.376007,4.428001 2.628006,13.5c0.071991,3.384003 0.143997,6.155998 0.216003,8.208c-2.089005,1.621002 -4.17601,3.240997 -6.300003,4.896004zm2.735001,-36.359001c0.612,1.115997 1.223999,2.015999 1.90799,2.627998c0.64801,0.647999 1.368011,1.007999 2.052002,1.116001c-0.503998,0.467999 -1.007996,0.935997 -1.547989,1.439999c-0.108002,0.108002 -0.252014,0.251999 -0.432007,0.396c-1.763992,1.619999 -2.988007,2.448002 -3.779999,2.484001c-0.684006,0 -1.367996,-0.252003 -1.979996,-0.792s-1.152008,-1.332001 -1.62001,-2.375999c1.80101,-1.621002 3.600998,-3.241001 5.400009,-4.896zm12.600006,36.108002c-0.179993,-3.456001 -0.287994,-6.876007 -0.359985,-10.368004c-0.072021,-3.456001 -0.108002,-7.02 -0.108002,-10.619999c-0.324005,0 -0.864014,0 -1.548004,0c-0.684021,0.035999 -1.223999,0.035999 -1.584015,0.035999c-0.324005,0 -0.863983,0 -1.548004,-0.071999c-0.68399,0 -1.259995,0 -1.583984,0c1.548004,-1.800003 3.096008,-3.600002 4.643982,-5.436001c0.180023,0 0.396027,0 0.612,0c0.324005,0 0.684021,0 1.044006,0c0,-0.108002 0,-0.216 0,-0.360001c0,-1.799999 0.179993,-3.348 0.576019,-4.608002c0.395996,-1.295998 1.007996,-2.483997 1.871979,-3.671997c1.476013,-2.016003 3.167999,-3.743999 5.040009,-5.148003c1.872009,-1.403999 3.347992,-2.087999 4.428009,-2.087999c0.828003,0 1.656006,0.324001 2.483978,0.864c0.863007,0.540001 1.799011,1.476002 2.844025,2.771c-1.656006,1.548 -3.313019,3.096001 -4.969025,4.645c-0.718994,-1.152 -1.403992,-2.015999 -2.050995,-2.591999c-0.64798,-0.540001 -1.260986,-0.792 -1.837006,-0.792c-0.827972,0 -1.439972,0.647999 -1.763977,1.944c-0.395996,1.295998 -0.576019,3.419998 -0.612,6.264c0,0.431999 0.03598,1.043999 0.108002,1.835999c0,0.431999 0.03598,0.720001 0.03598,0.936001c1.044006,0 2.123993,-0.072002 3.167999,-0.108002c1.080017,-0.035999 2.195007,-0.071999 3.348022,-0.18c-1.297028,1.836002 -2.59201,3.672001 -3.888,5.544003c-0.828003,0.035999 -1.656006,0.071999 -2.52002,0.143997c0,0.324001 0,0.684002 0,1.044003c0,1.655998 0.071991,3.815998 0.179993,6.444c0.180023,2.663998 0.396027,5.471996 0.612,8.495998c-2.194,1.692001 -4.390991,3.384003 -6.622986,5.076004zm14.759979,0.179993c0.036987,-0.719994 0.071991,-1.439995 0.106995,-2.231995c0.037018,-0.792 0.037018,-2.015999 0.109009,-3.599998c0.143005,-6.372002 0.143005,-10.332005 -0.144989,-11.880005c-0.252014,-1.584 -0.756012,-2.339996 -1.549011,-2.375999c-0.287018,0 -0.539001,0.036003 -0.863007,0.072002c-0.286987,0.071999 -0.610992,0.216 -0.972992,0.360001c-0.035004,-0.360001 -0.070007,-0.756001 -0.143005,-1.152c1.475006,-1.152 2.988007,-2.304001 4.5,-3.456001c1.152008,-0.863998 1.942993,-1.439999 2.411987,-1.728001c0.504028,-0.216 0.936005,-0.360001 1.26001,-0.324001c1.546997,0.036003 2.195007,4.572002 2.015991,13.644001c-0.106995,3.384003 -0.179993,6.155998 -0.179993,8.208c-2.15799,1.474998 -4.353973,2.951004 -6.550995,4.463997zm4.5,-36.107998c0.541016,1.152 1.117004,2.088001 1.764008,2.772003c0.613007,0.647999 1.296997,1.079998 2.018005,1.223999c-0.541016,0.431999 -1.080017,0.863998 -1.621002,1.332001c-0.107025,0.107998 -0.252014,0.251999 -0.469025,0.396c-1.835999,1.475998 -3.095978,2.231998 -3.886993,2.195999c-0.68399,0 -1.332001,-0.324001 -1.90799,-0.900002c-0.610992,-0.576 -1.11499,-1.403999 -1.511993,-2.447998c1.871002,-1.513 3.743988,-3.024002 5.61499,-4.572002zm23.869019,32.796001c-1.117004,0.863998 -2.269989,1.727997 -3.419983,2.592003c-1.045013,0.755997 -1.945007,1.332001 -2.77301,1.691994c-0.791016,0.288002 -1.584015,0.396004 -2.303009,0.360001c-0.972992,-0.107994 -1.980011,-0.503998 -2.988007,-1.223999c-0.972992,-0.647995 -1.90799,-1.584 -2.80899,-2.736c-0.936005,-1.295998 -1.69101,-2.699997 -2.160004,-4.211998c-0.432007,-1.512001 -0.64801,-3.023998 -0.539001,-4.535999c0.106995,-1.836002 0.576019,-3.563999 1.438995,-5.076c0.828003,-1.584 2.053009,-3.024002 3.671997,-4.464001c1.584015,-1.332001 3.096008,-2.304001 4.465027,-2.880001c1.438995,-0.646999 2.770996,-0.863998 4.065979,-0.755997c1.514008,0.143997 2.736023,0.719997 3.744019,1.691998c1.044983,0.972 1.511993,2.015999 1.440979,3.096001c-0.036987,0.720001 -0.43399,1.368 -1.117004,2.015999c-0.755981,0.684002 -2.159973,1.620003 -4.35498,2.808002c-0.21701,-1.476002 -0.756012,-2.736 -1.549011,-3.744003c-0.790985,-1.079998 -1.690979,-1.655998 -2.626984,-1.764c-0.900024,-0.071999 -1.729004,0.252003 -2.412018,1.044003c-0.720978,0.792 -1.079987,1.799999 -1.187988,3.023998c-0.071991,1.476002 0.106995,3.061001 0.645996,4.68c0.540985,1.656002 1.332001,3.132004 2.339996,4.5c0.757996,0.900002 1.549011,1.620003 2.520996,2.160004c0.936005,0.539993 1.942993,0.899994 2.988007,0.972c0.432007,0.035995 0.863007,0.035995 1.222992,0.035995c0.395996,-0.035995 0.721008,-0.108002 1.080017,-0.215996c0.181976,0.287994 0.398987,0.611 0.61499,0.935997zm21.85199,8.782997c-0.972992,-4.463997 -2.196991,-7.703995 -3.743988,-9.827995c-1.549011,-2.088005 -3.563995,-3.348 -6.121002,-3.744003c-0.936005,-0.143997 -1.69101,-0.071999 -2.303009,0.18c-0.575989,0.324005 -0.972992,0.756004 -1.045013,1.403999c-0.106995,1.116005 0.324005,2.124001 1.369019,3.060005c1.042999,0.972 2.339996,1.584 3.886993,1.835999c0.541016,0.071999 1.117004,0.108002 1.656006,0.071999c0.540985,-0.071999 1.044983,-0.251999 1.549011,-0.468002c0.142975,0.324005 0.323975,0.648003 0.503998,0.972c-1.873016,1.620003 -3.600006,2.807999 -5.076019,3.564003c-1.548981,0.755997 -2.880981,1.043999 -4.031006,0.863998c-1.548981,-0.251999 -2.915985,-1.080002 -4.067993,-2.484001c-1.117004,-1.332001 -1.583984,-2.736 -1.440979,-4.103996c0.288971,-2.195999 1.620972,-3.996002 4.067993,-5.472c2.449005,-1.548 5.507996,-2.304001 9.108978,-2.448002c-0.540985,-1.764 -1.188995,-3.167999 -1.944977,-4.212002c-0.791016,-1.079998 -1.584015,-1.655998 -2.412018,-1.799999c-0.251984,-0.035999 -0.539001,-0.035999 -0.790985,0.035999c-0.252014,0 -0.541016,0.108002 -0.865021,0.324001c-0.142975,-0.324001 -0.321991,-0.683998 -0.503998,-1.043999c1.621002,-1.007999 3.277008,-2.016003 4.934021,-3.061001c0.790985,-0.467999 1.367004,-0.792 1.763977,-0.900002c0.359009,-0.143997 0.719025,-0.18 1.008026,-0.143997c1.187988,0.216 2.626984,2.267998 4.35498,6.227997c1.729004,3.960003 3.709015,9.900002 6.049011,17.748001c-1.946991,1.118004 -3.925995,2.270004 -5.906006,3.420998zm20.050995,-21.851997c0.289001,0.035999 0.721008,0.145 1.296997,0.251999c0.575989,0.18 1.007996,0.252003 1.296997,0.324001c0.68399,0.144001 1.799011,0.324001 3.347992,0.576c0.180023,0.035999 0.287018,0.071999 0.39502,0.108002c-1.871002,1.439999 -3.779022,2.915997 -5.688019,4.391998c-0.575989,-0.108002 -1.151978,-0.251999 -1.763977,-0.396c-0.180023,0.827999 -0.359009,1.656002 -0.539001,2.591999c-0.182007,0.863998 -0.324005,1.800003 -0.469025,2.807999c-0.503998,3.204002 -0.68399,5.543999 -0.575989,6.984001c0.144989,1.475998 0.539001,2.267998 1.332001,2.412003c0.106995,0.035995 0.286987,0 0.468994,0c0.179993,-0.071999 0.432007,-0.108002 0.684021,-0.216003c0.144989,0.431999 0.286987,0.900002 0.431976,1.368004c-1.511993,0.683998 -3.02298,1.403999 -4.535004,2.124001c-0.685974,0.287994 -1.296997,0.540001 -1.872986,0.720001c-0.539001,0.143997 -0.936005,0.215996 -1.225006,0.179993c-1.007996,-0.215996 -1.653992,-1.223999 -1.906006,-2.915993c-0.289001,-1.692001 -0.181976,-4.104004 0.287018,-7.164001c0.251984,-1.584 0.539001,-3.167999 0.863007,-4.896004c0.289001,-1.692001 0.685974,-3.491997 1.044983,-5.399998c-0.863007,-0.216 -1.764008,-0.396 -2.664001,-0.647999c-0.863007,-0.216003 -1.729004,-0.504002 -2.628998,-0.756001c1.692993,-1.332001 3.38501,-2.664001 5.113007,-3.996002c0.394989,0.072002 0.828003,0.18 1.26001,0.288002c0.179993,-0.972 0.395996,-1.98 0.610992,-2.988003c2.376984,-1.115997 4.751984,-2.231998 7.128998,-3.348c-0.109009,0.468002 -0.360992,1.584 -0.721008,3.312c-0.396973,1.729 -0.720978,3.169003 -0.972992,4.284zm21.348999,24.767998c-1.225006,0.756004 -2.449005,1.512001 -3.709015,2.304001c-1.403992,0.863998 -2.626984,1.403999 -3.526978,1.620003c-0.936005,0.251999 -1.835999,0.288002 -2.736023,0.035995c-0.972992,-0.251999 -1.90799,-0.863998 -2.80899,-1.835999c-0.971008,-0.935997 -1.764008,-2.124001 -2.411987,-3.491997c-0.645996,-1.295998 -1.080017,-2.700005 -1.295013,-4.104004c-0.179993,-1.367996 -0.144989,-2.771996 0.106995,-4.031998c0.359009,-1.692001 0.973022,-3.167999 1.871002,-4.536003c0.899994,-1.367996 2.125,-2.556 3.674011,-3.743996c1.835999,-1.296001 3.527008,-2.232002 5.145996,-2.771999c1.656006,-0.540001 3.061005,-0.612 4.320007,-0.288002c1.368988,0.360001 2.483978,1.188 3.347992,2.448002c0.86499,1.260002 1.188995,2.519997 0.937988,3.816002c-0.181976,0.972 -0.86499,1.871994 -2.052979,2.736c-1.225006,0.863998 -3.132996,1.764 -5.832001,2.843994c-1.045013,0.396004 -2.088013,0.792 -3.167999,1.223999c-0.106995,-0.395996 -0.21701,-0.827995 -0.359009,-1.259995c1.295013,-0.504005 2.375,-1.116005 3.096008,-1.728004c0.790985,-0.647995 1.222992,-1.332001 1.367004,-2.051994c0.144989,-0.792 -0.035004,-1.584 -0.576019,-2.448006c-0.503998,-0.863998 -1.187988,-1.403999 -1.979004,-1.619995c-0.937988,-0.251999 -1.729004,-0.071999 -2.411987,0.612c-0.686005,0.647995 -1.188995,1.692001 -1.44101,3.059998c-0.539001,2.556 -0.143005,5.076004 1.152008,7.632004c1.26001,2.556 2.915985,4.139999 4.895996,4.68c0.610992,0.143997 1.225006,0.215996 1.835999,0.18c0.64801,-0.036003 1.332001,-0.216003 2.088013,-0.432007c0.144989,0.360001 0.287994,0.756004 0.468994,1.152z" clip-rule="evenodd"/>
    </g>
   </g>
  </g>
 </switch>

 <g>
  <title>Layer 1</title>
  <rect id="svg_52" height="81" width="254" y="23.878998" x="136.838989" stroke-width="5" stroke="#ffffff" fill="#ffffff"/>
  <rect id="svg_54" height="123" width="133" y="212.878998" x="385.838989" stroke-width="5" stroke="#ffffff" fill="#ffffff"/>
 </g>
</svg>